<svg id="brain_icon" xmlns="http://www.w3.org/2000/svg" width="500" height="500" viewBox="0 0 500 500">
  <defs>
    <style>
      .cls-1 {
        fill: #c94747;
      }

      .cls-2 {
        fill: #231f20;
      }
    </style>
  </defs>
  <path id="brain_shape" class="cls-1" d="M147.25,118.27a265.6,265.6,0,0,1,57.93-5c9.24.25,13.13.88,20.77.63A122.73,122.73,0,0,0,278.21,100C389.89,120.18,459.51,200.07,453.8,269.4c-2.92,35.51-26.34,77.08-66.66,100.1-49.25,28.12-98.71,14.28-107.72,11.58a210.13,210.13,0,0,1-85.49,7.37C179.52,386.66,82.08,373,55.32,305.28,32.4,247.28,66.89,163.7,147.25,118.27Z"/>
  <path id="brain_outline" class="cls-2" d="M462.66,263.72C456.35,241.43,441.49,227,427.59,218a90.48,90.48,0,0,0-1.5-31.77c-2.94-12.81-13.2-44.22-45.07-59.41-16.45-7.85-31-8.78-42.22-7.31a80.56,80.56,0,0,0-31.4-25.27c-8.82-3.94-39.89-15.38-69.64,2.51a67,67,0,0,0-9.93,7.28,98.74,98.74,0,0,0-40.45-7.41c-9,.29-30,1-49.28,15.7a72.91,72.91,0,0,0-15,15.57c-10.72-.56-28.35.74-44.93,12C47.81,160.62,46.91,196.08,47,203a74.32,74.32,0,0,0,3.31,20.57C42.94,235.77,25,270.86,39.56,303.64c7.93,17.79,24.61,32.47,45.78,40.26a104.53,104.53,0,0,0,36.05,6.27A117.16,117.16,0,0,0,158.73,344c-.13,16.34,4.33,32.53,14.66,43.14,9.4,9.66,23.5,14.52,41.62,14.52,11.68,0,25-2,39.85-6.08q9.22-2.52,19.1-6a108.15,108.15,0,0,0,33.48,17.65A117.1,117.1,0,0,0,342.91,413a87.17,87.17,0,0,0,47.59-13.55c23.21-14.85,33.39-37.24,37.6-50.62a47.07,47.07,0,0,0,8.82-3.19C468.3,330.48,469.36,287.35,462.66,263.72ZM379.72,382.56c-12.63,8.09-34.38,15.6-66.23,5.5a86.37,86.37,0,0,1-17-7.52c24.68-10.76,51.44-25.38,79.2-43.34l.08-.07a71.67,71.67,0,0,0,15.53,8.65,65,65,0,0,0,15.18,4.08C402.14,360.16,394.16,373.33,379.72,382.56Zm65-79.51c-1.73,8.4-6,19.47-16.5,24.54a29.8,29.8,0,0,1-9.74,2.7h0c-16.19,1.76-36.58-7.81-47.88-28.94A10,10,0,1,0,353,310.79a80.82,80.82,0,0,0,8,12.1c-94.09,60-155.65,68.28-173.21,50.25-11.23-11.53-12.3-39.08-2.25-57.79,11.36-21.16,37.66-29,65.51-37.38a207.62,207.62,0,0,1,43.37-8.05l6.73-.52,2-6.45a88.3,88.3,0,0,0-3.67-63,10,10,0,0,0-18.24,8.21,68.16,68.16,0,0,1,4.5,42.45,226.45,226.45,0,0,0-40.47,8.17c-16,4.8-32.31,9.68-46.39,17.35a41.77,41.77,0,0,1-8.56-14.58c-1.24-3.67-4.53-13.43-.65-24.13A32.05,32.05,0,0,1,196,226.94l.06-.07.42-.51c.06-.09.13-.17.2-.26s.25-.38.37-.57l.16-.25c.13-.22.25-.45.36-.68l.09-.18a9.41,9.41,0,0,0,.63-1.83,8.1,8.1,0,0,0,.18-1,.31.31,0,0,0,0-.1,8.46,8.46,0,0,0,.08-.88v0a1.92,1.92,0,0,0,0-.24c0-.24,0-.48,0-.72s0-.31,0-.46l-.06-.51c0-.17-.07-.34-.1-.5s-.06-.3-.1-.45a4,4,0,0,0-.15-.49c0-.15-.09-.3-.14-.45s-.12-.28-.18-.42-.13-.33-.2-.49l-.19-.36-.28-.5-.22-.32q-.15-.24-.33-.48l-.27-.33c-.12-.14-.23-.29-.35-.42s-.28-.29-.43-.43l-.25-.24,0,0a9.58,9.58,0,0,0-.77-.63l-.11-.07-.71-.47-.36-.19c-.17-.09-.33-.18-.51-.26l-.42-.18-.49-.19-.48-.15-.46-.13c-.24-.06-.49-.1-.74-.14l-.22,0a8.28,8.28,0,0,0-1-.09h0c-3.59-.13-8.6-1-12.14-4.4-7.11-6.82-4.63-20.72-.71-28a28.49,28.49,0,0,1,10.25-10.61,10,10,0,0,0-10.51-17,48.68,48.68,0,0,0-17.34,18.12,52.37,52.37,0,0,0-6.07,28.67c-5.36,3.64-14.67,8.25-26.2,6.82a37.29,37.29,0,0,1-19.75-9A10,10,0,0,0,93.4,210a57.17,57.17,0,0,0,30.37,13.68,54.38,54.38,0,0,0,6.76.42,58.43,58.43,0,0,0,28.86-7.91,31.82,31.82,0,0,0,3.59,4.06,33.5,33.5,0,0,0,9.49,6.4c-.59,1.29-1.14,2.61-1.63,3.95a51,51,0,0,0-3,18c-13.38-.62-31.19,1.29-48.65,11.5a84.7,84.7,0,0,0-22.91,19.69,10,10,0,0,0,15.5,12.64,64.91,64.91,0,0,1,17.5-15.07C144.8,268.29,161,267.8,171.7,269a61.67,61.67,0,0,0,10.62,18.64,66.39,66.39,0,0,0-14.47,18.27,73.92,73.92,0,0,0-6,15.38C139,331.61,113.74,333,92.25,325.13c-16.13-5.94-28.68-16.73-34.42-29.63-5.29-11.88-5.17-26,.35-42,1-2.77,2-5.35,3-7.72a81.84,81.84,0,0,0,9,10.82,10,10,0,0,0,14.2-14.09,62.47,62.47,0,0,1-13.59-21l-.13-.36A55,55,0,0,1,67,202.6c-.06-3.12.07-30.93,22.36-46.11a50.65,50.65,0,0,1,23.24-8.35,84.35,84.35,0,0,0-3.66,14,10,10,0,0,0,8.23,11.5,10.4,10.4,0,0,0,1.65.14,10,10,0,0,0,9.85-8.37c1.19-7.13,5.66-25,21.55-37.21,14.14-10.83,29.51-11.32,37.76-11.59a78,78,0,0,1,26.14,3.7,79.27,79.27,0,0,0-8.81,20,10,10,0,1,0,19.26,5.36c1.78-6.38,7.63-22.27,23.46-31.78,21.45-12.91,44.59-4.33,51.17-1.39a59.43,59.43,0,0,1,18.7,13.28,71.76,71.76,0,0,0-21.34,15.92,78.85,78.85,0,0,0-22.7,1.68,83,83,0,0,0-38.17,21c-12.29,12-17.95,25.9-15.94,39.17,1.63,10.77,8.31,20.72,19.33,28.79a10,10,0,1,0,11.82-16.13c-4.62-3.39-10.35-8.85-11.38-15.66-2.32-15.36,19.35-33.16,38.84-37.66,6.07-1.4,27.09-4.86,42.76,9.38,14.64,13.31,18.53,36,9.67,56.53a10,10,0,1,0,18.35,7.93c12.26-28.35,6.4-60.2-14.57-79.26A59.09,59.09,0,0,0,320,147.72a49.24,49.24,0,0,1,14.11-6.79c12.24-3.64,25.14-2.3,38.32,4,24,11.44,31.89,35.86,34.17,45.82a69.78,69.78,0,0,1,1.72,17.45,85.68,85.68,0,0,0-10.43-3.43,10,10,0,0,0-4.65,19.46c.4.09,40.3,10.07,50.19,45A76.14,76.14,0,0,1,444.74,303.05ZM413,277.2a10,10,0,0,1-15.84,12.21c-2.19-2.84-14.07-17-32.95-17.12H364c-16.34,0-27.16,10.61-30.72,14.11a51.67,51.67,0,0,0-14.2,26.09l-.15.55c0,.13-.06.25-.1.37s-.18.54-.29.8c0,.1-.09.2-.14.3s-.17.36-.26.54-.11.2-.17.3l-.3.5-.2.28c-.11.16-.23.32-.35.47l-.21.26-.39.43-.24.25c-.14.13-.28.26-.43.38l-.25.22-.49.37-.42.28-.55.34-.42.21-.38.19-.46.18a3.54,3.54,0,0,1-.39.14L312,320l-.43.11-.45.1-.51.08-.38.05c-.25,0-.5,0-.75,0h-.21l-.48,0a4,4,0,0,1-.49,0,95.4,95.4,0,0,0-26.33,1.1c-22.7,4.16-39.28,15.9-49.2,25a10,10,0,0,1-13.53-14.73c11.86-10.89,31.73-24.93,59.12-30a114.85,114.85,0,0,1,23.45-1.83,70.72,70.72,0,0,1,17.42-27.8C332.68,259,347.72,252.29,364,252.29h.33C392.49,252.44,409.81,273.06,413,277.2Z"/>
</svg>
