<svg xmlns="http://www.w3.org/2000/svg" width="500" height="500" viewBox="0 0 500 500">
  <defs>
    <style>
      .cls-1 {
        fill: #6ec0e4;
      }

      .cls-2 {
        fill: none;
        stroke: #231f20;
        stroke-linecap: round;
        stroke-miterlimit: 10;
        stroke-width: 20px;
      }

      .cls-3 {
        fill: #93bf55;
      }
    </style>
  </defs>
  <g id="camera_icon">
    <path id="camera_shapeB" class="cls-1" d="M29.45,235.49l364.27-1.72c7.52,36.42,1.65,61.48-6.88,78.57-55.58,111.36-324.52,85.36-352,23.84a132.94,132.94,0,0,1-5.4-15.73C19.66,285.57,24.49,254.64,29.45,235.49Z"/>
    <path id="camera_outlineB" class="cls-2" d="M34.09,176.94H394.23M34.09,369.36H394.23M33.68,176.94,381.61,84M19,122,366.93,29M33.68,176.94,19,122M366.93,29,381.61,84M46.84,173.42l40.24-69.6m13.45,55.25,40.25-69.6m13.45,55.25,40.24-69.6m13.13,55.34,40.24-69.6m13.28,55.29,40.24-69.6m12.17,55.59,40.24-69.6m40,201.23-360.14.54m-.09-56.83,360.14-.54m-360,57.37-.09-56.83m360.23,56.29-.09-56.83M47.2,234.29,104,177.36m-1.18,56.85,56.76-56.94m-1.18,56.85,56.76-56.93M213.6,234l56.76-56.93M269,234,325.76,177m-2.52,56.86L380,176.94m14.22,0V369.36M29.45,176.94V369.36"/>
    <path id="camera_shape" class="cls-3" d="M221.21,319.93c107-65.85,216.12-49.3,253.13,7,19.64,29.86,24.67,81.34-.09,113.16-19.17,24.64-48.69,28.07-102.43,34.31-72.92,8.46-114.06,13.24-141.52-14.3C200.38,430,198.73,373.68,221.21,319.93Z"/>
    <path id="camera_outline" class="cls-2" d="M215.25,460.06H468.56m-253.31,0V313m18.88-3V294.08M266.26,310V294.08m0,0H234.13M241,339.91h20.37M468.56,460.06V313m-68.26,0h68.26M312.35,284.66h59.11M400.3,313l-28.84-28.34M283.52,313H215.25m68.27,0,28.83-28.34m29.56,40.66a56.2,56.2,0,1,0,56.2,56.2A56.2,56.2,0,0,0,341.91,325.32Zm0,31.86a24.34,24.34,0,1,0,24.34,24.34A24.34,24.34,0,0,0,341.91,357.18Z"/>
  </g>
</svg>
