<svg xmlns="http://www.w3.org/2000/svg" width="500" height="500" viewBox="0 0 500 500">
  <defs>
    <style>
      .cls-1 {
        fill: #6ec0e4;
      }

      .cls-2 {
        fill: none;
        stroke: #231f20;
        stroke-linecap: round;
        stroke-miterlimit: 10;
        stroke-width: 20px;
      }

      .cls-3 {
        fill: #231f20;
      }
    </style>
  </defs>
  <g id="diamond_icon">
    <path id="diamond_shape" class="cls-1" d="M108.55,113C76,201.29,160.88,361.59,250,358.7c73.66-2.39,122.45-115.36,131.58-136.5,11.4-26.39,21.69-51.11,15.17-80.9-14.08-64.4-93-89.82-107.19-94C239.29,32.31,167.1,35.52,127.76,80.63A105.79,105.79,0,0,0,108.55,113Z"/>
    <path id="diamond_outline" class="cls-2" d="M73,160.93,250,358.7M127.69,67.24Q100.38,114.09,73,160.93m54.65-93.69L250,358.7M73,160.93h91.08M250,358.7,427,160.93M372.31,67.24q27.32,46.85,54.65,93.69M372.31,67.24,250,358.7m85.88-197.77H427M127.69,67.24H372.31M164.12,160.93l83.64-93.69m88.12,93.69L247.76,67.24"/>
    <path id="diamond_flash" class="cls-3" d="M251.34,389.22a10,10,0,0,1,10,10v51.54a10,10,0,1,1-20,0V399.22A10,10,0,0,1,251.34,389.22ZM25.25,237.85a10,10,0,0,0,10,10H86.79a10,10,0,0,0,0-20H35.25A10,10,0,0,0,25.25,237.85ZM132,341.48,95.56,377.92a10,10,0,1,0,14.14,14.14l36.44-36.44A10,10,0,1,0,132,341.48ZM403.21,237.85a10,10,0,0,0,10,10h51.54a10,10,0,0,0,0-20H413.21A10,10,0,0,0,403.21,237.85ZM351.05,341.48a10,10,0,0,0,0,14.14l36.44,36.44a10,10,0,0,0,14.14-14.14l-36.44-36.44a10,10,0,0,0-14.14,0Z"/>
  </g>
</svg>
