<svg xmlns="http://www.w3.org/2000/svg" width="500" height="500" viewBox="0 0 500 500">
  <defs>
    <style>
      .cls-1 {
        fill: #f4969d;
      }

      .cls-2 {
        fill: #231f20;
      }
    </style>
  </defs>
  <g id="female_icon">
    <path id="female_shape" class="cls-1" d="M251.48,68.11c83.31,10.81,149.52,98.26,154.16,183C412.2,370.86,295.53,481.83,227,467.21c-19.23-4.1-31.07-17.62-54.75-44.67-15.9-18.15-62.47-72.88-70.6-158.48-4-42.15-11.36-119.55,41.79-165.7C186.89,60.62,244,67.13,251.48,68.11Z"/>
    <path id="female_outline" class="cls-2" d="M374.33,183.26a191.66,191.66,0,0,0-23.8-40c14.78-20.76,19.66-46.93,12-70.25A74.86,74.86,0,0,0,314.23,25C285.18,15.79,260.81,27.71,252,33a59.81,59.81,0,0,0-35.88,9c-2.77,1.76-27,18-26.25,46.25a49.53,49.53,0,0,0,4.88,20.05q-3,1-6,2.22c-32,12.54-58.68,35.27-75.22,64a147.61,147.61,0,0,0-19.16,81.6,158.08,158.08,0,0,0,12.11,52.85c-1.22,46.36,15.55,85.2,22.65,99.43a8.6,8.6,0,0,0,7.71,4.77,8.48,8.48,0,0,0,3.83-.91,8.6,8.6,0,0,0,3.87-11.54,207.64,207.64,0,0,1-17.86-54.51c-.09-.47-.16-.94-.24-1.41,11.75,18.27,27.44,29.86,37.91,36.13l2.61,3.81c9.51,13.94,15.94,23.37,21.38,29.58a9,9,0,0,0-.25,2c-.08,8.85-.61,17.8-1.56,26.61-.91,8.37-2.23,16.81-3.92,25.06a8.61,8.61,0,0,0,16.87,3.46c1.8-8.79,3.2-17.76,4.16-26.67.7-6.37,1.16-12.82,1.42-19.26a56.61,56.61,0,0,0,17.57,2.66c24.17,0,49.24-13.07,64.25-22.55,2.48-1.56,5.15-3.26,8-5.33-.47,3-.89,6.05-1.22,9.09A214.77,214.77,0,0,0,293,449.7a8.6,8.6,0,0,0,8.57,7.92l.71,0a8.6,8.6,0,0,0,7.88-9.27,197.22,197.22,0,0,1,.51-37c.19-1.75.41-3.49.65-5.24a9.52,9.52,0,0,0,1.14-.68,188.08,188.08,0,0,0,38.56-37.23c21.73-27.71,34.54-59,38.09-92.82C392.43,243.93,387.45,213,374.33,183.26ZM132.8,319.43c-7-19.07-5.79-37.8-.79-54.59a136,136,0,0,0,7.71,28.42,97.87,97.87,0,0,0-.26,37.7c.24,1.25.5,2.47.79,3.67A82,82,0,0,1,132.8,319.43ZM372,273.54c-3.2,30.61-14.81,58.87-34.51,84a181.2,181.2,0,0,1-20.7,22.26q1.56-5.61,3.45-11.11c1.4-3,2.63-6.09,3.72-9.21,10-7.06,28.49-23.35,33.48-50,4.19-22.38-3.42-40.33-5.92-46.22-6-14.16-13.39-21.29-22-29.56a174.44,174.44,0,0,1-16.91-18.18A159.47,159.47,0,0,1,288,170.4a8.61,8.61,0,0,0-16.2,5.83,176.56,176.56,0,0,0,27.37,50,189.32,189.32,0,0,0,18.45,19.89c7.79,7.53,13.42,13,18.06,23.89,2,4.71,8.08,19.06,4.85,36.33a56.91,56.91,0,0,1-10,22.9,195.71,195.71,0,0,0,.15-37.49,8.61,8.61,0,0,0-17.15,1.53c2.21,24.8-.31,43.47-4.76,57.42a8.84,8.84,0,0,0-.43,1.32c-.79,2.37-1.65,4.59-2.54,6.68a9,9,0,0,0-1,2l-.41,1.2A65.26,65.26,0,0,1,288.91,383a82.68,82.68,0,0,1-11.29,8.09c-29.08,18.37-55.12,24.36-71.45,16.42-4.38-2.13-13-14.83-25-32.41-15.48-22.68-21.88-32.48-24.75-47.43a81.1,81.1,0,0,1,.71-33.33.2.2,0,0,0,0-.07c0-.19.07-.37.1-.56s0-.19,0-.29,0-.36,0-.55,0-.2,0-.3,0-.33,0-.49,0-.24,0-.36l-.06-.4c0-.15,0-.3-.06-.45s0-.22-.08-.33a4.05,4.05,0,0,0-.12-.5l-.1-.3-.18-.51,0-.07a120,120,0,0,1-5.26-15.73c.7-.32,1.39-.65,2.07-1a28.26,28.26,0,0,0,9.05-8.21,15.71,15.71,0,0,1,5.22-4.87,17.09,17.09,0,0,1,2.47-1.16l1.52-.4a19.33,19.33,0,0,1,5.53-.95c.55,0,1.09,0,1.61.08l.95.11.36.06a22.67,22.67,0,0,1,8.45,3.47l.15.08a7.45,7.45,0,0,0,.83.45l.2.1a10,10,0,0,0,1,.39l.2.05a8.6,8.6,0,0,0,.88.19l.27,0a9.28,9.28,0,0,0,1.06.07h.17a7,7,0,0,0,.79,0l.3,0,.68-.13.29-.07a7.24,7.24,0,0,0,.79-.25l.13,0c.3-.12.59-.25.88-.4l.22-.13c.21-.12.42-.24.62-.38a2.48,2.48,0,0,0,.26-.19c.19-.14.37-.28.55-.44l.23-.19q.36-.35.69-.72l0-.07c.16-.2.33-.41.48-.63l.08-.13.06-.08c.06-.09.1-.18.15-.27s.16-.26.23-.39l.18-.37c.06-.14.13-.27.18-.41s.1-.26.15-.39.09-.27.13-.41l.11-.41.09-.41c0-.14,0-.28.06-.42s0-.27.05-.4,0-.29,0-.43,0-.27,0-.4,0-.28,0-.42a2.83,2.83,0,0,0,0-.41c0-.14,0-.27,0-.41s0-.27-.07-.41l-.09-.39c0-.14-.07-.28-.11-.41s-.08-.25-.13-.38-.09-.27-.15-.4-.1-.24-.16-.36-.12-.27-.19-.4l-.2-.34-.23-.37-.23-.33c-.09-.12-.17-.24-.26-.35a4.12,4.12,0,0,0-.28-.31c-.09-.11-.19-.22-.29-.32l-.31-.3-.33-.28-.34-.27-.25-.19a37.23,37.23,0,0,0-18-6.48l-.54,0c-.71-.05-1.44-.08-2.18-.09h-.26a37.48,37.48,0,0,0-12,2.06c-5.17,1.2-11.08.91-17.6-.83.08-3.33.31-6.65.66-10a154.74,154.74,0,0,1,29.64-32.72L178,198c34.79-26,76.29-28.53,86.11-28.75a8.61,8.61,0,0,0-.4-17.22c-14,.33-86.15,4.93-126.74,64.09-1.33,1.94-2.58,3.86-3.8,5.77a9.05,9.05,0,0,0-.91,1.45,170.92,170.92,0,0,0-8.92,16.18l-.79,1.58a162.13,162.13,0,0,0-9.87,26c-4-29,1.13-58.63,15.68-83.94s38.24-45.47,66.58-56.58a144.58,144.58,0,0,1,91-4.43,8.61,8.61,0,1,0,4.62-16.59,162.78,162.78,0,0,0-79-2A33.31,33.31,0,0,1,207,87.89c-.48-19.1,17.53-30.82,18.3-31.31,15.17-9.68,36.65-8.29,48.88,3.16a35.84,35.84,0,0,1,9.93,17.33,8.61,8.61,0,0,0,16.66-4.34A53.1,53.1,0,0,0,286,47.17a49.7,49.7,0,0,0-8.54-6.4A56.26,56.26,0,0,1,309,41.4a57.66,57.66,0,0,1,37.15,37c7.7,23.47-1.17,50.89-22.07,68.24a8.61,8.61,0,0,0,11,13.25c1.33-1.1,2.6-2.24,3.85-3.4C352.14,174.2,378,216.89,372,273.54ZM262.75,231.9c5.9-.2,12.21-2.38,18.76-6.52A8.61,8.61,0,0,1,290.69,240c-1.19.75-2.38,1.45-3.57,2.11,2.74.43,6-.17,9.72-1.81a8.61,8.61,0,1,1,7,15.74,36.85,36.85,0,0,1-14.91,3.44,27.71,27.71,0,0,1-6.88-.85,28.07,28.07,0,0,1-10.86-5.6,15.79,15.79,0,0,0-6.3-3.36,19.51,19.51,0,0,0-2.68-.49H260.6a19.4,19.4,0,0,0-5.59.51c-.53.14-1,.31-1.52.48l-.85.34-.37.16a23,23,0,0,0-7.29,5.54l-.19.19a4.4,4.4,0,0,1-.38.37l-.28.25-.41.32-.3.22-.43.27-.32.18-.45.22-.34.15-.46.17-.35.12a4.21,4.21,0,0,1-.48.12l-.36.08-.49.08-.35,0c-.17,0-.34,0-.52,0h-.34l-.37,0-.43,0-.37-.06-.42-.06-.37-.09-.42-.11-.36-.12c-.14,0-.27-.1-.41-.15l-.34-.15-.41-.2-.33-.18-.4-.25-.3-.2-.39-.3-.2-.15-.09-.09a.81.81,0,0,1-.1-.09c-.08-.06-.14-.14-.22-.21s-.21-.21-.32-.32l-.27-.32-.28-.34-.24-.35c-.08-.12-.16-.23-.23-.35a3.59,3.59,0,0,1-.21-.38,3.13,3.13,0,0,1-.19-.36c-.07-.13-.12-.26-.18-.4l-.15-.37c-.05-.13-.09-.27-.13-.41l-.12-.38-.09-.42c0-.13-.06-.26-.08-.39s0-.28-.05-.42,0-.27,0-.4,0-.28,0-.42,0-.27,0-.41,0-.27,0-.41,0-.28,0-.42,0-.26.06-.4.05-.28.08-.42.07-.26.11-.39a3.17,3.17,0,0,1,.12-.41c0-.13.09-.26.14-.39l.16-.39.19-.38c.06-.13.13-.25.2-.38l.23-.37c.08-.12.15-.24.24-.35a3,3,0,0,1,.27-.35,2.35,2.35,0,0,1,.19-.25,37.17,37.17,0,0,1,15.77-10.93l.52-.18c.72-.24,1.46-.47,2.22-.67h0A37.44,37.44,0,0,1,262.75,231.9Z"/>
  </g>
</svg>
