<svg xmlns="http://www.w3.org/2000/svg" width="500" height="500" viewBox="0 0 500 500">
  <defs>
    <style>
      .cls-1 {
        fill: #f4969d;
      }

      .cls-2 {
        fill: #231f20;
      }
    </style>
  </defs>
  <g id="heart_icon">
    <path id="heart_shape" class="cls-1" d="M59.16,215.94c3-43.39,32.85-111.24,89-116.9,37.53-3.79,76.89,21.24,101,62.32C253.38,151.8,276,103.71,316,98c53.07-7.6,105,63.85,110.18,119.44,6.94,74.21-65.76,158.21-185.06,191.84C125.94,373.81,54,291.9,59.16,215.94Z"/>
    <path id="heart_outline" class="cls-2" d="M445.2,167.15c-13.35-41.58-67.3-92.11-124.83-80-23.55,5-44.65,20.32-61,44.39A157.33,157.33,0,0,0,250,147.24a157.33,157.33,0,0,0-9.34-15.67c-16.38-24.07-37.48-39.42-61-44.39C122.09,75,68.15,125.57,54.8,167.15c-11.4,35.55,1.29,79.76,35.74,124.48,34.88,45.27,88.42,87.42,154.85,121.9l.39.17.5.22c.25.1.51.19.76.27l.43.13c.31.08.62.14.93.19l.32.06a10.84,10.84,0,0,0,1.27.09h0a11,11,0,0,0,1.27-.09l.32-.06c.31-.05.62-.11.93-.19l.42-.13c.26-.08.52-.17.77-.27l.5-.22.39-.17c66.43-34.48,120-76.63,154.85-121.9C443.91,246.91,456.6,202.7,445.2,167.15ZM393.61,279.42C361.78,320.75,310.9,361.07,250,393.35c-60.9-32.28-111.78-72.6-143.61-113.93-30.33-39.36-41.88-77.06-32.54-106.16,5.67-17.67,20.43-36.82,38.52-50,20.5-14.92,42.92-20.79,63.13-16.52,45.74,9.65,64.2,66.33,65,68.74,0,.1.07.19.11.29s.12.36.2.54.13.3.2.45l.21.41a5.5,5.5,0,0,0,.28.48l.21.35c.11.16.22.31.34.46l.24.32.36.41.3.32.36.34.38.33.35.27.43.31.38.24.45.26.45.22.42.19a5.54,5.54,0,0,0,.57.21,2.18,2.18,0,0,0,.27.11l.08,0,.65.17.31.07c.21.05.42.07.64.1l.35,0,.53,0,.46,0h.41l.59,0,.3,0c.23,0,.46-.06.68-.11l.28-.06L253,182H253l.25-.1.6-.22.4-.18c.15-.08.31-.15.46-.24a3.83,3.83,0,0,0,.44-.25l.39-.24.42-.3.37-.28.36-.33.37-.34.3-.32.36-.41.24-.32c.12-.15.23-.3.34-.46l.21-.34c.1-.16.19-.32.28-.49s.14-.27.2-.41.15-.3.21-.46.14-.34.2-.52.08-.2.11-.3c.77-2.41,19.23-59.09,65-68.74,20.21-4.27,42.63,1.6,63.13,16.52,18.09,13.17,32.85,32.32,38.52,50C435.49,202.36,423.94,240.06,393.61,279.42Z"/>
  </g>
</svg>
