<svg xmlns="http://www.w3.org/2000/svg" width="500" height="500" viewBox="0 0 500 500">
  <defs>
    <style>
      .cls-1 {
        fill: #ffc32e;
      }

      .cls-2 {
        fill: #231f20;
      }
    </style>
  </defs>
  <g id="lightbulb_icon">
    <path id="lightbulb_shape" class="cls-1" d="M174.69,106.81c8.7-5.92,52.13-35.53,106.35-23.89,60,12.88,98.4,68.76,107.12,121,1.47,8.8,11.27,74.11-34.68,123.31-46.33,49.62-130.34,62.48-188,20.81-64.67-46.72-55.24-132.33-54.72-136.41C111.79,203.28,120.35,143.86,174.69,106.81Z"/>
    <path id="lightbulb_outline" class="cls-2" d="M250,388.63a10,10,0,0,1-10-10V274.28a10,10,0,0,1,20,0V378.63A10,10,0,0,1,250,388.63Zm0-245.46a105.95,105.95,0,0,0-42,203.22v32.24a10,10,0,0,0,20,0V332.22a84.7,84.7,0,0,1-20-8.12,86,86,0,1,1,84,0,84.7,84.7,0,0,1-20,8.12v46.41a10,10,0,0,0,20,0V346.39a105.95,105.95,0,0,0-42-203.22Zm42.8,265.46a10,10,0,0,0-10-10H217.2a10,10,0,1,0,0,20h65.6A10,10,0,0,0,292.8,408.63Zm-9.87,30a10,10,0,0,0-10-10H227.07a10,10,0,0,0,0,20h45.86A10,10,0,0,0,282.93,438.63Z"/>
    <path id="lightbulb_flash" class="cls-2" d="M248.66,122.91a10,10,0,0,1-10-10V61.37a10,10,0,0,1,20,0v51.54A10,10,0,0,1,248.66,122.91ZM444.75,274.28a10,10,0,0,0-10-10H383.21a10,10,0,0,0,0,20h51.54A10,10,0,0,0,444.75,274.28ZM368,170.65l36.44-36.44a10,10,0,0,0-14.14-14.15l-36.44,36.45A10,10,0,1,0,368,170.65ZM126.79,274.28a10,10,0,0,0-10-10H65.25a10,10,0,0,0,0,20h51.54A10,10,0,0,0,126.79,274.28ZM149,170.65a10,10,0,0,0,0-14.14l-36.44-36.45a10,10,0,1,0-14.14,14.15l36.44,36.44a10,10,0,0,0,14.14,0Z"/>
  </g>
</svg>
