<svg xmlns="http://www.w3.org/2000/svg" width="500" height="500" viewBox="0 0 500 500">
  <defs>
    <style>
      .cls-1 {
        fill: #93bf55;
      }

      .cls-2 {
        fill: #ffc32e;
      }

      .cls-3 {
        fill: #f4969d;
      }

      .cls-4 {
        fill: #6ec0e4;
      }

      .cls-5 {
        fill: #231f20;
      }
    </style>
  </defs>
  <g id="logo">
    <g id="logo_group">
      <path class="cls-1" d="M456.38,322.88c-5.25-3.38-21.89-14.09-40.92-7.29a45.4,45.4,0,0,0-11.06,6.19v61.33c19.23,16.63,52,14.21,67.1-2.11a33.66,33.66,0,0,0,8.86-19C482.53,340.24,459.7,325,456.38,322.88Z"/>
      <path class="cls-2" d="M313.53,155.16c0-7.87,1.26-19,8.13-29C341.93,96.76,402,90.73,428,122c14.55,17.45,16.1,43.63,9.48,63.17a69.56,69.56,0,0,1-11.58,21.06Q417.1,184,408.3,161.81Z"/>
      <path class="cls-3" d="M358.09,382.83c7.1-9-.62-18.36-1.73-52.13-1-31.34,5.1-39.08-2.17-48.18-9.94-12.43-34.46-14.35-49.52-3.15-1.8,1.33-8.51,6.61-13.47,19.81-9.51,25.32-8.2,68.15,18.55,84.7C325.14,393.41,349.05,394.28,358.09,382.83Z"/>
      <path class="cls-4" d="M198.2,304.73a37.25,37.25,0,0,0,3.45,25c6.26,11.71,20.06,21.75,34.92,19.83,18.9-2.44,30.77-23.07,29.75-41-.83-14.53-10.42-31.57-26.73-34.92C220.08,269.69,202.09,287.55,198.2,304.73Z"/>
      <path class="cls-5" d="M407.61,396.23a8.28,8.28,0,0,1-8.28-8.28V256.76a8.28,8.28,0,1,1,16.56,0V388A8.28,8.28,0,0,1,407.61,396.23Z"/>
      <path class="cls-5" d="M135.24,396.23A8.28,8.28,0,0,1,127,388V256.76a8.28,8.28,0,1,1,16.56,0V388A8.28,8.28,0,0,1,135.24,396.23Z"/>
      <path class="cls-5" d="M407.61,396.23H135.24a8.28,8.28,0,0,1,0-16.56H407.61a8.28,8.28,0,0,1,0,16.56Z"/>
      <path class="cls-5" d="M436.2,219.2a16,16,0,0,1-1.83.11H383.51a29.45,29.45,0,0,0-1.32,2.85,29.45,29.45,0,0,0-1.32-2.85H328.13a29.45,29.45,0,0,0-1.32,2.85,29.45,29.45,0,0,0-1.32-2.85H272.75a29.45,29.45,0,0,0-1.32,2.85c-.4-1-.83-1.93-1.32-2.85H217.37a29.45,29.45,0,0,0-1.32,2.85c-.4-1-.83-1.93-1.32-2.85H162c-.49.92-.92,1.88-1.32,2.85a27.24,27.24,0,0,0-1.32-2.85H106.6a29.85,29.85,0,1,0,54.06,25.11,29.85,29.85,0,0,0,55.39,0,29.84,29.84,0,0,0,55.38,0,29.84,29.84,0,0,0,55.38,0,29.84,29.84,0,0,0,55.38,0,29.85,29.85,0,1,0,54-25.22ZM133,246.58a13.3,13.3,0,1,1,13.3-13.29A13.3,13.3,0,0,1,133,246.58Zm55.39,0a13.3,13.3,0,1,1,13.29-13.29A13.3,13.3,0,0,1,188.36,246.58Zm55.38,0A13.3,13.3,0,1,1,257,233.29,13.31,13.31,0,0,1,243.74,246.58Zm55.38,0a13.3,13.3,0,1,1,13.29-13.29A13.31,13.31,0,0,1,299.12,246.58Zm55.38,0a13.3,13.3,0,1,1,13.3-13.29A13.31,13.31,0,0,1,354.5,246.58Zm55.38,0a13.3,13.3,0,1,1,13.3-13.29A13.3,13.3,0,0,1,409.88,246.58Z"/>
      <g>
        <path class="cls-5" d="M301.47,392.42a8.28,8.28,0,0,1-8.28-8.28V287.06a8.28,8.28,0,1,1,16.56,0v97.08A8.28,8.28,0,0,1,301.47,392.42Z"/>
        <path class="cls-5" d="M358.8,392.42a8.27,8.27,0,0,1-8.27-8.28V287.06a8.28,8.28,0,1,1,16.55,0v97.08A8.27,8.27,0,0,1,358.8,392.42Z"/>
        <path class="cls-5" d="M358.8,293.68H301.47a8.28,8.28,0,1,1,0-16.55H358.8a8.28,8.28,0,1,1,0,16.55Z"/>
        <path class="cls-5" d="M338.85,344.94a8,8,0,0,1-1.62-.16,8.36,8.36,0,0,1-3-1.23,9,9,0,0,1-1.26-1,8.32,8.32,0,0,1-2.42-5.85,8.81,8.81,0,0,1,.16-1.62,8.4,8.4,0,0,1,.47-1.55,8.92,8.92,0,0,1,.76-1.43,8.33,8.33,0,0,1,1-1.26,7.71,7.71,0,0,1,1.26-1,7.84,7.84,0,0,1,1.43-.76,8.12,8.12,0,0,1,6.33,0,7.84,7.84,0,0,1,1.43.76,7.31,7.31,0,0,1,1.26,1,8.33,8.33,0,0,1,1,1.26,9.79,9.79,0,0,1,.76,1.43A7.69,7.69,0,0,1,347,335a8,8,0,0,1,.17,1.62,8.33,8.33,0,0,1-2.43,5.85,8.5,8.5,0,0,1-1.26,1,8.36,8.36,0,0,1-3,1.23A8,8,0,0,1,338.85,344.94Z"/>
        <path class="cls-5" d="M219.87,360.18a44.1,44.1,0,1,1,44.1-44.1A44.15,44.15,0,0,1,219.87,360.18Zm0-71.64a27.54,27.54,0,1,0,27.54,27.54A27.57,27.57,0,0,0,219.87,288.54Z"/>
      </g>
      <path class="cls-5" d="M435.94,229.58l.23-.28.24-.33a4,4,0,0,0,.23-.34,3.21,3.21,0,0,0,.19-.31c.08-.13.15-.26.22-.4l.14-.29c.07-.15.13-.29.19-.44s.07-.2.11-.31.1-.29.14-.44l.09-.36.09-.4c0-.14.05-.29.06-.44s0-.23,0-.34a4.67,4.67,0,0,0,0-.52c0-.07,0-.13,0-.2a.31.31,0,0,0,0-.1c0-.18,0-.35,0-.52l0-.34-.06-.41c0-.15-.05-.29-.08-.44a2.81,2.81,0,0,1-.08-.31l-.15-.51,0-.09-24-68.92H129.36l-24,68.92,0,.09a4.91,4.91,0,0,0-.15.51c0,.11-.06.21-.08.31s-.06.29-.08.44,0,.27-.06.41,0,.23,0,.34a4.41,4.41,0,0,0,0,.52v.1a1.34,1.34,0,0,0,0,.2c0,.17,0,.34,0,.52s0,.23,0,.34,0,.3.07.44,0,.27.08.4.06.24.1.36.09.3.14.44a2.83,2.83,0,0,0,.11.31c.06.15.12.29.19.44s.09.19.14.29.14.27.22.4l.18.31.23.34.25.33.23.28.3.33.24.24.34.31.27.22.36.27.32.21.34.21.4.21.3.14c.16.08.33.14.5.21l.17.07.1,0a4.13,4.13,0,0,0,.5.15l.33.09.41.07.44.07.3,0,.56,0h40a8.34,8.34,0,0,0,2.73,1.46,8.15,8.15,0,0,0,2.47.38,8.32,8.32,0,0,0,5.19-1.84h42.11a8.29,8.29,0,0,0,7.17,4.15,8.3,8.3,0,0,0,7.16-4.15h46.34a8.27,8.27,0,0,0,10.4,0H323a8.26,8.26,0,0,0,14.33,0h42.11a8.28,8.28,0,0,0,5.19,1.84,8,8,0,0,0,2.46-.38,8.38,8.38,0,0,0,2.74-1.46h39.87c.26,0,.53,0,.79,0l.2,0,.54-.08.32-.07.39-.1.38-.11.1,0,.18-.07c.16-.07.33-.13.49-.21a2.75,2.75,0,0,0,.3-.14l.41-.21.34-.21.32-.21.36-.27a2.75,2.75,0,0,0,.26-.22l.35-.31.23-.24ZM418,215.9h-27.9l-14.58-46.8h26.19Zm-82.21,0-10.63-46.8h33l14.58,46.8Zm-165.73,0,14.58-46.8h33l-10.63,46.8Zm64.57-46.8h28.5v46.8H224Zm45.06,0H308.2l10.63,46.8H279.71Zm-138.58,0h26.18l-14.58,46.8h-27.9Z"/>
      <path class="cls-5" d="M455.91,327.39a33.47,33.47,0,0,0-5.7.47,44.48,44.48,0,0,0-45.81-20.09v17a28.07,28.07,0,0,1,36.12,26.86c0,.39,0,.77,0,1.15A17.86,17.86,0,0,1,455.91,344h.51a17.86,17.86,0,0,1-.51,35.71,17.6,17.6,0,0,1-7.5-1.66,17.85,17.85,0,0,1-10.32-15,28.13,28.13,0,0,1-13.19,13.71,27.69,27.69,0,0,1-12.42,2.91,28,28,0,0,1-8.08-1.19v17a44.8,44.8,0,0,0,8.08.75,44.24,44.24,0,0,0,23.24-6.55,34.42,34.42,0,1,0,20.19-62.29Z"/>
      <path class="cls-1" d="M121.08,336.59c11,4,15.72,0,23.1,4.76,9.74,6.26,15.18,22,10.87,33.3-5.12,13.46-22.59,16.71-43,20.5-19.3,3.58-42.44,7.88-65.71-4.87-4.74-2.6-31.2-17.09-30.58-36,.89-27.41,58.15-52.39,81.11-37.64C105.23,322,107.41,331.62,121.08,336.59Z"/>
      <path class="cls-5" d="M131.66,327.39a33.91,33.91,0,0,0-6.34.59,44.57,44.57,0,0,0-75.53-.12,33.47,33.47,0,0,0-5.7-.47,34.42,34.42,0,1,0,20.19,62.29,44.51,44.51,0,0,0,46.87-.24,34.41,34.41,0,1,0,20.51-62.05Zm0,52.28a17.87,17.87,0,0,1-17.87-17.86c0-.12,0-.25,0-.37a28.18,28.18,0,0,1-13.28,15,28.05,28.05,0,0,1-38.61-13.42,17.85,17.85,0,0,1-10.32,15,17.6,17.6,0,0,1-7.5,1.66A17.86,17.86,0,0,1,43.58,344h.51a17.86,17.86,0,0,1,15.41,8.83c0-.38,0-.76,0-1.15a28,28,0,0,1,56.09,0c0,.91,0,1.81-.13,2.71a17.84,17.84,0,0,1,16-10.39h.2a17.86,17.86,0,0,1,0,35.72Z"/>
    </g>
  </g>
</svg>
