<svg xmlns="http://www.w3.org/2000/svg" width="500" height="500" viewBox="0 0 500 500">
  <defs>
    <style>
      .cls-1 {
        fill: #93bf55;
      }

      .cls-2 {
        fill: #231f20;
      }
    </style>
  </defs>
  <g id="male_icon">
    <path id="male_shape" class="cls-1" d="M80.93,212.76C84,187.27,95.75,91,189.17,43.39c13-6.63,81-41.28,139.65-19.66,99.59,36.69,127.59,219,41.9,329.67C337.5,396.32,264.59,457.69,194.4,444.14,105.28,426.93,70.49,298.57,80.93,212.76Z"/>
    <path id="male_outline" class="cls-2" d="M381.6,147.38a9.86,9.86,0,0,0,1.39-3c7.84-29-2.45-58.14-25-71-1.52-.86-3.05-1.62-4.57-2.29C345.24,57,331,39.09,307.68,27.15,270.07,7.92,242,13.3,225.06,21.2A78,78,0,0,0,214.75,27a9.64,9.64,0,0,0-3.27-.92,87,87,0,0,0-45,7.37,87.84,87.84,0,0,0-40.93,39.29,85.76,85.76,0,0,0-23.79,18C68.1,127.47,79.12,182,84,199.84c-4.39,7.87-3.08,18.71-1.29,33.55,1.54,12.75,2.66,22,9.32,32.43a59.55,59.55,0,0,0,25.19,21.79l.53.21c.26,2.35.55,4.69.91,7a378.62,378.62,0,0,1-8,55.52c-1.51,6.84-3.23,13.73-5.12,20.48a10,10,0,0,0,6.93,12.32,9.79,9.79,0,0,0,2.71.38,10,10,0,0,0,9.62-7.31c2-7.11,3.8-14.36,5.39-21.56.93-4.23,1.78-8.49,2.58-12.76,5.48,12.14,13.65,25.33,27.34,35.93,5.4,4.18,8.35,5.36,18.12,9.27,4.87,2,11.55,4.63,21.53,8.84,11.93,5,20.47,8.84,27.33,11.91,9.88,4.4,15.87,7.07,21.46,8.59-1.08,4.57-2.11,9.16-3,13.74-3,14.71-5.45,29.74-7.15,44.67a10,10,0,0,0,8.8,11.07,9,9,0,0,0,1.15.07,10,10,0,0,0,9.92-8.87c1.64-14.34,3.94-28.77,6.86-42.9,1.12-5.41,2.35-10.84,3.67-16.24,13.13-.75,33-4.64,43.87-20.17,6-8.61,6.42-16,6.89-24.64.18-3.41.39-7.29,1-12,2.37-19.64,8.54-30.07,15.07-41.12C342.73,308,350.14,295.43,351,273c.17-4.78,0-8.77-.17-12.63a132.82,132.82,0,0,1,.63-23,143.53,143.53,0,0,1,3-17.61,10.15,10.15,0,0,0,2.7-.92c12-6.18,21.15-15.79,25.88-27.07C388.83,177.83,388,161.91,381.6,147.38ZM335,214.77a166.35,166.35,0,0,0-3.49,20.33,152.46,152.46,0,0,0-.73,26.1c.16,3.63.31,7.05.16,11-.64,17.39-5.93,26.34-12.63,37.67-6.95,11.77-14.83,25.1-17.71,48.9-.64,5.34-.88,9.75-1.07,13.3-.44,8-.68,10.49-3.3,14.24-6.47,9.24-22.34,12.14-35,11.77-7.11-.21-10-1.4-26-8.53-6.58-2.93-15.59-6.95-27.71-12.07-10.15-4.28-16.92-7-21.87-9-9.26-3.71-10.21-4.12-13.3-6.52-16.79-13-23-31.14-28-45.71a143.47,143.47,0,0,1-5.8-23.25c0-.14,0-.27-.06-.4A150.59,150.59,0,0,1,138,249.8a10,10,0,0,0-19.84-2.52q-1.06,8.4-1.32,16.68a37.44,37.44,0,0,1-8-8.88c-4.22-6.64-5-12.84-6.33-24.09-1-8.49-2.3-19-1.08-21.36,1.26-.91,7.4-.9,15.74,3.83-.26,1.82-.48,3.65-.66,5.51a10,10,0,0,0,9,10.9c.32,0,.64,0,1,0a10,10,0,0,0,9.94-9.06A86.81,86.81,0,0,1,145.52,189a67.15,67.15,0,0,1,8.9-13.13c3.94-4.8,8-9.77,11.83-19.74,6-15.6,6.26-30.14,6.45-38.83a143,143,0,0,0-.57-15.89A186.6,186.6,0,0,1,218,94.33c32.78-.89,60.56,7.47,82.57,24.85a116.47,116.47,0,0,1,31.65,39.29,111.56,111.56,0,0,1,5.62,31l-36.31-3.78a10,10,0,1,0-2.07,19.89l36.75,3.83C335.83,211.18,335.45,212.92,335,214.77ZM364.57,184a30.86,30.86,0,0,1-6.73,9.85,129.18,129.18,0,0,0-6.87-42.3l-.06-.17c-.06-.17-.13-.34-.2-.5a3.48,3.48,0,0,0-.21-.48l-.07-.18a136.43,136.43,0,0,0-37.49-46.69C253.59,56.61,176.56,78.82,161.72,83.75a10,10,0,0,0-2.3,1.12,10,10,0,0,0-8.06,11.31,120.94,120.94,0,0,1,1.34,20.74c-.16,7.87-.42,19.76-5.13,32.11-2.66,6.94-5.15,10-8.61,14.19a87.19,87.19,0,0,0-11.2,16.63,99.68,99.68,0,0,0-5.8,13.62c-7-3.16-13.95-4.58-20-4.16-4.32-18.53-9.76-58.46,14.58-85a66.63,66.63,0,0,1,20.79-15.1,10,10,0,0,0,1-.52l.19-.14a8.5,8.5,0,0,0,.84-.6l.27-.23a9.26,9.26,0,0,0,.85-.81l.06-.06a10.87,10.87,0,0,0,.78-1c.06-.08.11-.17.17-.26a10.32,10.32,0,0,0,.63-1.12v0c4-8.47,13.58-24,32.78-32.82a65.43,65.43,0,0,1,19.93-5.54c-.36.48-.73,1-1.08,1.45a10,10,0,1,0,16.2,11.72,60.9,60.9,0,0,1,23.63-20c12.89-6,34.64-9.92,65,5.63a89,89,0,0,1,27.7,22.19,65.08,65.08,0,0,0-10.59,2A10,10,0,0,0,321,88.4c4.65-1.27,16.6-3.6,27.1,2.37,10.92,6.2,17.33,19.38,17.46,34-.41-.39-.81-.78-1.23-1.16a10,10,0,0,0-13.45,14.8,49.38,49.38,0,0,1,14.59,22.91C367.71,169.37,367.41,177.19,364.57,184ZM260.85,189a10,10,0,0,1-9.73,7.74,10.4,10.4,0,0,1-2.27-.26l-41.34-9.6-17.16,8a10,10,0,1,1-8.44-18.13l20.28-9.44.29-.11A4.71,4.71,0,0,1,203,167c.14-.06.29-.1.44-.15l.49-.14.48-.11.47-.09.52-.06.45,0h1l.57.05.41,0,.59.11.28,0L253.37,177A10,10,0,0,1,260.85,189Z"/>
  </g>
</svg>
