<svg xmlns="http://www.w3.org/2000/svg" width="500" height="500" viewBox="0 0 500 500">
  <defs>
    <style>
      .cls-1 {
        fill: #93bf55;
      }

      .cls-2 {
        fill: #231f20;
      }
    </style>
  </defs>
  <g id="map_icon">
    <path id="map_shape" class="cls-1" d="M232.2,418.18C176.46,420,127.45,343,112.6,281.66c-13.79-56.92-13.68-164.43,69.56-215,58.92-35.8,143.58-33.4,186.55,9.49,72.43,72.27-4.38,228.73-69.56,300.38C265.56,413.45,244.2,417.79,232.2,418.18Z"/>
    <path id="map_outline" class="cls-2" d="M347.51,326.74c40.9-74.4,53.86-116.37,49.52-160.39-.37-3.75-.87-7.49-1.47-11.23h.24a145.88,145.88,0,0,0-5.65-23.7c-.12-.38-.22-.77-.34-1.16a11.13,11.13,0,0,0-.43-1.14c-20-57.76-75-99.34-139.47-99.34S130.39,71.42,110.39,129.25a9.41,9.41,0,0,0-.37,1c-.08.27-.15.53-.23.79A146.9,146.9,0,0,0,104,155.12h.26c-.6,3.74-1.1,7.48-1.47,11.23-4.34,44,8.62,86,49.52,160.39a1226.57,1226.57,0,0,0,89.49,139.33.61.61,0,0,0,.07.1h0l0,0a10.41,10.41,0,0,0,.68.81l.27.27.5.47c.13.12.26.22.4.33l.2.16.33.23.28.19c.28.18.57.34.86.49l.2.09c.27.13.54.24.81.34l.19.07a9.75,9.75,0,0,0,2,.48l.21,0a8.77,8.77,0,0,0,1,.06h0a8.77,8.77,0,0,0,1-.06l.21,0a8.92,8.92,0,0,0,1-.18h0a9,9,0,0,0,1-.3l.21-.07q.4-.15.78-.33l.22-.1c.29-.15.58-.31.86-.49l.28-.19.33-.23.2-.16.4-.33c.17-.15.34-.3.5-.46l.27-.28a10.41,10.41,0,0,0,.68-.81l0,0h0a.61.61,0,0,0,.07-.1A1226.57,1226.57,0,0,0,347.51,326.74ZM122.7,168.31a167.72,167.72,0,0,1,6.16-31.23,127.58,127.58,0,0,1,242.11,0,167.72,167.72,0,0,1,6.16,31.23c3.33,33.86-3.31,69.06-47.14,148.79a1205.38,1205.38,0,0,1-80.08,126.19A1206.93,1206.93,0,0,1,169.84,317.1C126,237.37,119.37,202.17,122.7,168.31Z"/>
    <path id="map_dot" class="cls-2" d="M249.91,256.33a86,86,0,1,0-86-86A86.07,86.07,0,0,0,249.91,256.33Zm0-151.94a66,66,0,1,1-66,66A66,66,0,0,1,249.91,104.39Z"/>
  </g>
</svg>
