<svg xmlns="http://www.w3.org/2000/svg" width="500" height="500" viewBox="0 0 500 500">
  <defs>
    <style>
      .cls-1 {
        fill: #ffc32e;
      }

      .cls-2 {
        fill: #231f20;
      }
    </style>
  </defs>
  <g id="phone_icon">
    <path id="phone_shape" class="cls-1" d="M44.54,204.79c-19.13,61.59,22.59,125.44,56.24,157,75.73,70.92,214.66,75.62,291.34,3.07,6.41-6.06,67-65.27,58.47-148.32-1.28-12.38-5.07-45.34-27.6-74.68C363,63.63,214.38,69.05,121.06,124,96.28,138.52,58.15,161,44.54,204.79Z"/>
    <path id="phone_stand" class="cls-2" d="M250,301.91A68.92,68.92,0,1,1,318.92,233,69,69,0,0,1,250,301.91Zm0-121A52.12,52.12,0,1,0,302.12,233,52.18,52.18,0,0,0,250,180.88ZM403.9,383.43a8.4,8.4,0,0,0-8.4-8.4h-291a8.4,8.4,0,0,0,0,16.8h291A8.4,8.4,0,0,0,403.9,383.43ZM250,301.91A68.92,68.92,0,1,1,318.92,233,69,69,0,0,1,250,301.91Zm0-121A52.12,52.12,0,1,0,302.12,233,52.18,52.18,0,0,0,250,180.88Zm0,87.88A35.77,35.77,0,1,1,285.77,233,35.82,35.82,0,0,1,250,268.76ZM250,214a19,19,0,1,0,19,19A19,19,0,0,0,250,214ZM112.92,383.43v-61.1a8.4,8.4,0,0,0-16.8,0v61.1a8.4,8.4,0,0,0,16.8,0Zm291,0v-61.1a8.4,8.4,0,1,0-16.8,0v61.1a8.4,8.4,0,1,0,16.8,0Zm-299.21-50a8.41,8.41,0,0,0,8.25-8.55,87,87,0,0,1,6.84-35.76c10.89-25.67,31.48-39.21,42.78-45a8.4,8.4,0,1,0-7.65-14.95c-13.33,6.82-37.63,22.83-50.6,53.39a103.58,103.58,0,0,0-8.17,42.62,8.4,8.4,0,0,0,8.39,8.25Zm62.45-96.78V174.88a8.41,8.41,0,0,0-16.81,0v61.75a8.41,8.41,0,0,0,16.81,0ZM191.2,188.3v-23a8.4,8.4,0,1,0-16.8,0v23a8.4,8.4,0,1,0,16.8,0Zm18,0a8.4,8.4,0,0,0-8.4-8.4h-18a8.4,8.4,0,0,0,0,16.8h18A8.4,8.4,0,0,0,209.2,188.3ZM403.88,325.16a103.58,103.58,0,0,0-8.17-42.62c-13-30.56-37.27-46.57-50.6-53.39a8.4,8.4,0,1,0-7.65,14.95c11.3,5.79,31.89,19.33,42.78,45a87,87,0,0,1,6.84,35.76,8.41,8.41,0,0,0,8.25,8.55h.16A8.4,8.4,0,0,0,403.88,325.16Zm-54.19-88.53V174.88a8.41,8.41,0,0,0-16.81,0v61.75a8.41,8.41,0,0,0,16.81,0ZM325.6,188.3v-23a8.4,8.4,0,0,0-16.8,0v23a8.4,8.4,0,0,0,16.8,0Zm0,0a8.4,8.4,0,0,0-8.4-8.4h-18a8.4,8.4,0,1,0,0,16.8h18A8.4,8.4,0,0,0,325.6,188.3Zm35.79,144.27a8.4,8.4,0,0,0-8.4-8.4H147a8.4,8.4,0,1,0,0,16.8H353A8.4,8.4,0,0,0,361.39,332.57Z"/>
    <path id="phone_phone" class="cls-2" d="M485.87,227.13l.2-.31.24-.4a2.1,2.1,0,0,1,.13-.26c.08-.16.16-.32.23-.48l.09-.24a5.27,5.27,0,0,0,.19-.51c0-.11.06-.21.09-.32s.09-.3.12-.45,0-.29.08-.44,0-.23.05-.35,0-.34,0-.52a2.64,2.64,0,0,0,0-.28c0-.17,0-.34,0-.52s0-.2,0-.3,0-.3-.05-.45,0-.26,0-.38-.06-.25-.08-.38-.07-.3-.11-.45l0-.11c-1.54-5.21-3.28-10.46-5.18-15.58-.93-2.53-2.87-7.78-5.62-13.92a210.45,210.45,0,0,0-11.5-21.71c-5.75-9.32-28.85-26.7-60.34-40.56-30.67-13.5-82.31-29.63-154.17-29.8H249c-53.26,0-101.38,8.55-143,25.43-38.38,15.55-55.19,31.73-55.88,32.41A168.22,168.22,0,0,0,28.24,183a104.25,104.25,0,0,0-15.42,37.65l0,.17c0,.14,0,.29-.07.44s0,.27,0,.4,0,.26,0,.39,0,.3,0,.45,0,.23,0,.35,0,.31,0,.46,0,.24.05.36.05.29.08.44.06.26.1.39.06.25.1.38.1.28.16.42l.12.33c.06.15.13.29.2.43s.1.21.16.31.15.26.23.39a3.45,3.45,0,0,0,.2.32l.25.33a3,3,0,0,0,.27.35,1.71,1.71,0,0,1,.11.14,122.39,122.39,0,0,0,61.62,38,125.06,125.06,0,0,0,31.39,4c3.25,0,6.51-.14,9.78-.38a24.17,24.17,0,0,1,3.34-5.09l.11-.13c.41-.47.83-.93,1.27-1.37l.27-.26c.45-.44.91-.86,1.39-1.27h0c.47-.39,1-.76,1.46-1.12l.35-.25c.49-.35,1-.68,1.51-1l.28-.15c.46-.27.93-.53,1.4-.76a23.58,23.58,0,0,1,9.46-2.56,98.66,98.66,0,0,0,1.83-34.7,97.87,97.87,0,0,0-7.28-26.52,185.34,185.34,0,0,1,26.62-18.74C186,160.24,217.31,151.13,250,149.22c32.69,1.91,64,11,90.46,26.36a184.66,184.66,0,0,1,26.35,18.52,87.81,87.81,0,0,0-7,27,89.4,89.4,0,0,0,6.16,42,8.41,8.41,0,0,0,7.79,5.24,8.62,8.62,0,0,0,1.33-.11,8.5,8.5,0,0,0,2.81.84,131.67,131.67,0,0,0,14.4.8,125.06,125.06,0,0,0,31.39-4,122.44,122.44,0,0,0,61.62-38l.07-.09c.1-.12.2-.24.29-.37Zm-66.43,22.51a109.76,109.76,0,0,1-39.56,2.75,72.33,72.33,0,0,1-3.38-29.69,71.41,71.41,0,0,1,7.07-24.8.3.3,0,0,0,.08-.08,8.26,8.26,0,0,0,2-3.77,73.88,73.88,0,0,1,5.65-8.49A8.4,8.4,0,1,0,378,175.3c-.91,1.18-1.86,2.48-2.81,3.86A202.46,202.46,0,0,0,348.88,161c-28.8-16.68-62.72-26.57-98.07-28.6a6.26,6.26,0,0,0-.75,0h-.12a6.26,6.26,0,0,0-.75,0c-35.35,2-69.27,11.92-98.07,28.6a203.12,203.12,0,0,0-26.34,18.19c-.88-1.34-1.75-2.59-2.59-3.74a8.4,8.4,0,1,0-13.59,9.88,82.67,82.67,0,0,1,6.23,10.06,9.74,9.74,0,0,0,.62,1.2A80.67,80.67,0,0,1,123.53,223a81.59,81.59,0,0,1-1.67,29.4,9.3,9.3,0,0,0-1.58,0,109.53,109.53,0,0,1-39.72-2.73A107.2,107.2,0,0,1,30.23,220,99.3,99.3,0,0,1,36.17,203a102.11,102.11,0,0,1,6.24-11,153.44,153.44,0,0,1,19.45-23.79c.55-.53,57.88-53,187.17-53h1.13c69,.16,118.24,15.52,147.44,28.37,32.94,14.51,50.47,30.23,52.81,34a195.2,195.2,0,0,1,10.46,19.76c2.52,5.62,4.27,10.34,5.2,12.87,1.22,3.3,2.37,6.65,3.43,10A107.2,107.2,0,0,1,419.44,249.64Z"/>
  </g>
</svg>
