<svg xmlns="http://www.w3.org/2000/svg" width="500" height="500" viewBox="0 0 500 500">
  <defs>
    <style>
      .cls-1 {
        fill: #f4969d;
      }

      .cls-2 {
        fill: #231f20;
      }
    </style>
  </defs>
  <g id="plane_icon">
    <path id="plane_shape" class="cls-1" d="M406.22,88c-57.57-35.52-158.7,31.94-195.45,56.71C200.5,151.59,71.4,240.3,90.68,311.23c5,18.57,14.71,15.44,54,59.42,55.6,62.29,63.39,97.27,88.3,97.63,19.49.29,23.18-17.92,65-40.76A230.52,230.52,0,0,1,322.39,416a273,273,0,0,1,44.95-13.77C413.07,391.16,491.93,140.81,406.22,88Z"/>
    <path id="plane_outline" class="cls-2" d="M46.62,284.55a10,10,0,0,1-5-18.68L448.42,33a10,10,0,0,1,9.93,17.35L51.58,283.22A9.9,9.9,0,0,1,46.62,284.55ZM397.18,404.67l66-361.16a10,10,0,0,0-19.67-3.59L377.5,401.08a10,10,0,0,0,8,11.63,10.17,10.17,0,0,0,1.81.17A10,10,0,0,0,397.18,404.67ZM179.82,322.49a10,10,0,0,0-6-12.8L50,265.14A10,10,0,0,0,43.23,284L167,328.51a10,10,0,0,0,12.79-6Zm42.5,135.36A10,10,0,0,0,228.18,445L179.78,315.6a10,10,0,0,0-18.73,7L209.45,452a10,10,0,0,0,12.87,5.86Zm4.38-3.21,66.09-84.71A10,10,0,0,0,277,357.63l-66.09,84.71a10,10,0,1,0,15.77,12.3Zm169.91-48a10,10,0,0,0-5.52-13L241.37,333a10,10,0,0,0-7.51,18.54l149.72,60.65a10,10,0,0,0,13-5.51Zm-168,43.6L247.47,344a10,10,0,1,0-19.7-3.48L209,446.74a10,10,0,0,0,8.11,11.59,9.5,9.5,0,0,0,1.75.16A10,10,0,0,0,228.66,450.23Zm-51.25-124,283-277.38a10,10,0,0,0-14-14.29L163.41,312a10,10,0,1,0,14,14.28Zm68.33,21.81L461.51,47.55a10,10,0,1,0-16.25-11.67L229.5,336.38a10,10,0,1,0,16.24,11.67Z"/>
  </g>
</svg>
