<svg xmlns="http://www.w3.org/2000/svg" width="500" height="500" viewBox="0 0 500 500">
  <defs>
    <style>
      .cls-1 {
        fill: #231f20;
      }

      .cls-2 {
        fill: #93bf55;
      }

      .cls-3 {
        fill: #ffc32e;
      }

      .cls-4 {
        fill: #f4969d;
      }

      .cls-5 {
        fill: #6ec0e4;
      }
    </style>
  </defs>
  <g id="shop_icon">
    <g id="shop_image">
      <path class="cls-1" d="M103.5,351.93a6.39,6.39,0,0,1-6.39-6.4V264.37a6.4,6.4,0,1,1,12.79,0v81.16A6.39,6.39,0,0,1,103.5,351.93Z"/>
      <path class="cls-2" d="M81,335c2.57-10,11.74-15.2,12.86-15.82,13.34-7.37,27.63-.08,29.9,1.08,9,4.57,22.68,16.42,20.21,32.6-2.18,14.25-15.73,24-28,24.79C94.38,379,76.42,352.75,81,335Z"/>
      <path class="cls-1" d="M117.13,380.63a33.33,33.33,0,1,1,33.33-33.32A33.36,33.36,0,0,1,117.13,380.63Zm0-53.85a20.53,20.53,0,1,0,20.53,20.53A20.55,20.55,0,0,0,117.13,326.78Z"/>
      <path class="cls-2" d="M468.86,323.32c-4.06-2.61-16.91-10.89-31.62-5.63a34.84,34.84,0,0,0-8.55,4.78v47.39c14.86,12.85,40.16,11,51.85-1.63a26,26,0,0,0,6.84-14.7C489.06,336.74,471.42,325,468.86,323.32Z"/>
      <path class="cls-3" d="M358.48,193.73c0-6.08,1-14.71,6.28-22.41,15.67-22.72,62.06-27.38,82.17-3.25,11.24,13.48,12.44,33.71,7.32,48.81a53.4,53.4,0,0,1-8.95,16.27l-13.59-34.29Z"/>
      <path class="cls-4" d="M392.91,369.64c5.49-6.94-.48-14.18-1.34-40.28-.79-24.21,3.95-30.19-1.67-37.22-7.68-9.61-26.63-11.09-38.27-2.44-1.38,1-6.57,5.11-10.4,15.31-7.35,19.57-6.34,52.66,14.33,65.45C367.45,377.82,385.92,378.49,392.91,369.64Z"/>
      <path class="cls-5" d="M269.37,309.3A28.86,28.86,0,0,0,272,328.62c4.84,9.05,15.5,16.8,27,15.32,14.61-1.88,23.78-17.82,23-31.64-.64-11.23-8.05-24.4-20.65-27C286.28,282.23,272.37,296,269.37,309.3Z"/>
      <path class="cls-1" d="M431.18,380a6.4,6.4,0,0,1-6.4-6.4V272.23a6.4,6.4,0,1,1,12.79,0V373.6A6.4,6.4,0,0,1,431.18,380Z"/>
      <path class="cls-1" d="M220.72,380a6.41,6.41,0,0,1-6.4-6.4V272.23a6.4,6.4,0,1,1,12.8,0V373.6A6.41,6.41,0,0,1,220.72,380Z"/>
      <path class="cls-1" d="M431.18,380H220.72a6.4,6.4,0,0,1,0-12.8H431.18a6.4,6.4,0,0,1,0,12.8Z"/>
      <path class="cls-1" d="M448.22,253.46a6.4,6.4,0,0,1-6-4.3L426.63,204.5H225.27l-15.55,44.66A6.4,6.4,0,1,1,197.64,245l18.53-53.25H435.72L454.26,245a6.41,6.41,0,0,1-6,8.51Z"/>
      <path class="cls-1" d="M448.22,253.45H203.68a6.4,6.4,0,1,1,0-12.79H448.22a6.4,6.4,0,1,1,0,12.79Z"/>
      <path class="cls-1" d="M453.26,243.21a11.12,11.12,0,0,1-1.41.09h-39.3c-.38.71-.71,1.45-1,2.2a21.94,21.94,0,0,0-1-2.2H369.76c-.38.71-.71,1.45-1,2.2a21.94,21.94,0,0,0-1-2.2H327a21.94,21.94,0,0,0-1,2.2c-.31-.75-.64-1.49-1-2.2H284.18a21.94,21.94,0,0,0-1,2.2c-.31-.75-.64-1.49-1-2.2H241.38c-.37.71-.71,1.45-1,2.2a21.94,21.94,0,0,0-1-2.2H198.59a23.06,23.06,0,1,0,41.77,19.4,23.07,23.07,0,0,0,42.8,0,23.06,23.06,0,0,0,42.79,0,23.06,23.06,0,0,0,42.79,0,23.06,23.06,0,0,0,42.79,0A23.07,23.07,0,0,0,456,254.09,22.84,22.84,0,0,0,453.26,243.21ZM219,264.37a10.28,10.28,0,1,1,10.27-10.28A10.29,10.29,0,0,1,219,264.37Zm42.79,0A10.28,10.28,0,1,1,272,254.09,10.29,10.29,0,0,1,261.76,264.37Zm42.79,0a10.28,10.28,0,1,1,10.28-10.28A10.29,10.29,0,0,1,304.55,264.37Zm42.8,0a10.28,10.28,0,1,1,10.27-10.28A10.29,10.29,0,0,1,347.35,264.37Zm42.79,0a10.28,10.28,0,1,1,10.27-10.28A10.29,10.29,0,0,1,390.14,264.37Zm42.79,0a10.28,10.28,0,1,1,10.27-10.28A10.29,10.29,0,0,1,432.93,264.37Z"/>
      <g>
        <path class="cls-1" d="M349.16,377.06a6.41,6.41,0,0,1-6.4-6.4v-75a6.4,6.4,0,1,1,12.8,0v75A6.41,6.41,0,0,1,349.16,377.06Z"/>
        <path class="cls-1" d="M393.46,377.06a6.4,6.4,0,0,1-6.39-6.4v-75a6.4,6.4,0,1,1,12.79,0v75A6.4,6.4,0,0,1,393.46,377.06Z"/>
        <path class="cls-1" d="M393.46,300.76h-44.3a6.4,6.4,0,1,1,0-12.79h44.3a6.4,6.4,0,1,1,0,12.79Z"/>
        <path class="cls-1" d="M378,340.36a5.88,5.88,0,0,1-1.25-.12,6.27,6.27,0,0,1-1.19-.36,6.55,6.55,0,0,1-1.11-.59,6.88,6.88,0,0,1-1-.8,6.42,6.42,0,0,1-1.87-4.52,6.54,6.54,0,0,1,.12-1.25,6.72,6.72,0,0,1,1-2.3,7,7,0,0,1,.8-1,6.2,6.2,0,0,1,1-.79,6.55,6.55,0,0,1,1.11-.59,6.27,6.27,0,0,1,1.19-.36,6.19,6.19,0,0,1,2.5,0,6.37,6.37,0,0,1,1.2.36,6.1,6.1,0,0,1,1.1.59,6.2,6.2,0,0,1,1,.79,5.81,5.81,0,0,1,.8,1,6.46,6.46,0,0,1,.59,1.1,6.37,6.37,0,0,1,.36,1.2,6.55,6.55,0,0,1,.13,1.25,6.39,6.39,0,0,1-1.88,4.52,6.88,6.88,0,0,1-1,.8,6.1,6.1,0,0,1-1.1.59,6.37,6.37,0,0,1-1.2.36A5.82,5.82,0,0,1,378,340.36Z"/>
        <path class="cls-1" d="M286.11,352.14a34.08,34.08,0,1,1,34.08-34.07A34.1,34.1,0,0,1,286.11,352.14Zm0-55.35a21.28,21.28,0,1,0,21.28,21.28A21.31,21.31,0,0,0,286.11,296.79Z"/>
      </g>
      <path class="cls-1" d="M326,254.88a6.41,6.41,0,0,1-6.4-6.4V201.75a6.4,6.4,0,0,1,12.8,0v46.73A6.41,6.41,0,0,1,326,254.88Z"/>
      <path class="cls-1" d="M371.31,256.66a6.41,6.41,0,0,1-6.24-5l-11.41-50.29a6.39,6.39,0,1,1,12.47-2.84l11.42,50.29a6.4,6.4,0,0,1-4.82,7.66A6.31,6.31,0,0,1,371.31,256.66Z"/>
      <path class="cls-1" d="M413.4,254.88a6.4,6.4,0,0,1-6.11-4.5L391.6,200a6.39,6.39,0,1,1,12.21-3.8l15.69,50.38a6.39,6.39,0,0,1-4.2,8A6.59,6.59,0,0,1,413.4,254.88Z"/>
      <path class="cls-1" d="M280.59,256.66a6.31,6.31,0,0,1-1.42-.16,6.4,6.4,0,0,1-4.82-7.66l11.41-50.29a6.4,6.4,0,1,1,12.48,2.84l-11.42,50.29A6.39,6.39,0,0,1,280.59,256.66Z"/>
      <path class="cls-1" d="M238.5,254.88a6.59,6.59,0,0,1-1.9-.29,6.41,6.41,0,0,1-4.21-8l15.7-50.38A6.39,6.39,0,1,1,260.3,200l-15.69,50.38A6.4,6.4,0,0,1,238.5,254.88Z"/>
      <path class="cls-1" d="M468.49,326.8a26.57,26.57,0,0,0-4.4.37,34.47,34.47,0,0,0-29.15-16.1,33.87,33.87,0,0,0-6.25.58v13.13a21.87,21.87,0,0,1,6.25-.92,21.7,21.7,0,0,1,21.67,21.68c0,.3,0,.59,0,.88a13.81,13.81,0,0,1,11.9-6.82h.4a13.8,13.8,0,0,1-.4,27.59,13.55,13.55,0,0,1-5.79-1.28,13.8,13.8,0,0,1-8-11.56,21.8,21.8,0,0,1-10.2,10.6,21.66,21.66,0,0,1-15.84,1.32v13.14a34.76,34.76,0,0,0,6.25.58,34.27,34.27,0,0,0,18-5.06,26.59,26.59,0,1,0,15.59-48.14Z"/>
      <path class="cls-2" d="M209.78,333.92c8.49,3.09,12.14,0,17.85,3.67,7.53,4.84,11.72,17,8.4,25.73-4,10.41-17.46,12.91-33.24,15.84-14.91,2.77-32.79,6.09-50.77-3.76-3.66-2-24.11-13.2-23.63-27.83.69-21.18,44.93-40.48,62.67-29.08C197.53,322.64,199.22,330.07,209.78,333.92Z"/>
      <path class="cls-1" d="M218,326.8a26.24,26.24,0,0,0-4.89.46,34.45,34.45,0,0,0-58.37-.09,26.6,26.6,0,1,0,11.2,47.77,34.37,34.37,0,0,0,36.21-.19A26.59,26.59,0,1,0,218,326.8Zm0,40.4a13.68,13.68,0,0,1-6.19-1.47,13.82,13.82,0,0,1-7.62-12.33,2.62,2.62,0,0,1,0-.28,21.76,21.76,0,0,1-10.26,11.61,21.67,21.67,0,0,1-19.64.23,21.82,21.82,0,0,1-10.19-10.6,13.81,13.81,0,0,1-8,11.56,13.52,13.52,0,0,1-5.79,1.28,13.8,13.8,0,0,1-.39-27.59h.39a13.81,13.81,0,0,1,11.91,6.82c0-.29,0-.58,0-.88a21.67,21.67,0,0,1,43.34,0,20.74,20.74,0,0,1-.1,2.09,13.78,13.78,0,0,1,12.38-8H218a13.8,13.8,0,1,1,0,27.6Z"/>
      <path class="cls-2" d="M62.76,317.69c11.75,1.92,32.53,9.74,33.71,23.7C97.71,356,76.46,367,72,369.24c-15.32,7.88-40.33,12.18-52.56-1a26,26,0,0,1-6.84-14.7c-1.68-16.79,16-28.55,18.52-30.21C44.38,314.8,58.38,317,62.76,317.69Z"/>
      <path class="cls-1" d="M65.06,311.07a34.47,34.47,0,0,0-29.15,16.1A26.6,26.6,0,1,0,47.1,374.94a34.46,34.46,0,1,0,18-63.87Zm0,56.13A21.45,21.45,0,0,1,55.47,365a21.8,21.8,0,0,1-10.2-10.6,13.8,13.8,0,0,1-8,11.56,13.55,13.55,0,0,1-5.79,1.28,13.8,13.8,0,0,1-.4-27.59h.4a13.81,13.81,0,0,1,11.9,6.82c0-.29,0-.58,0-.88A21.68,21.68,0,1,1,65.06,367.2Z"/>
      <path class="cls-1" d="M103.5,267.59a74.81,74.81,0,1,1,74.8-74.8A74.89,74.89,0,0,1,103.5,267.59Zm0-136.81a62,62,0,1,0,62,62A62.07,62.07,0,0,0,103.5,130.78Z"/>
    </g>
    <path id="shop_spin" class="cls-1" d="M145.83,195.82a7.39,7.39,0,0,1-5.29-2.57.76.76,0,0,1,.05-1.09.78.78,0,0,1,1.09.05,6,6,0,0,0,4.15,2.07h0a5.19,5.19,0,0,0,2.59-.79c4-2.31,6.11-9.67,6.49-11.13a.78.78,0,0,1,.94-.55.77.77,0,0,1,.55.94c-.57,2.19-2.77,9.52-7.21,12.07a6.51,6.51,0,0,1-3.35,1ZM75.25,224.15a15.59,15.59,0,0,0,4-3.2.77.77,0,1,0-1.14-1,14,14,0,0,1-11,4.62,14.32,14.32,0,0,1-12.33-8.2.77.77,0,0,0-1-.36.76.76,0,0,0-.36,1,15.84,15.84,0,0,0,13.66,9.08h.63A15.63,15.63,0,0,0,75.25,224.15Zm-22.45-11a.76.76,0,1,0,.76.76A.76.76,0,0,0,52.8,213.2Zm17-23-.39,0,.2.34a5.13,5.13,0,0,0,1.73,1.74,11.67,11.67,0,0,0,2.27,1.12,15.08,15.08,0,0,1,5.76,3.68,14.14,14.14,0,0,1,3.3,11.11,15.35,15.35,0,0,1-1.76,5.26,14.76,14.76,0,0,1-3.56,4.25,13.49,13.49,0,0,1-5,2.59,14,14,0,0,1-5.59.42,14.18,14.18,0,0,1-9.3-5.24,14.13,14.13,0,0,1-3-9.81,14.93,14.93,0,0,1,1.17-4.73,13.51,13.51,0,0,1,6.4-6.82,3.63,3.63,0,0,1,1.65-.46,2.26,2.26,0,0,1,.79.14A2.35,2.35,0,0,1,65.91,195a2.21,2.21,0,0,1,0,1.83,2.67,2.67,0,0,1-2,1.33,8.09,8.09,0,0,0-5.33,4.32,9.74,9.74,0,0,0-.93,3.38,10,10,0,0,0,.35,3.7,10.71,10.71,0,0,0,2,3.9,11.49,11.49,0,0,0,3.2,2.71,11.35,11.35,0,0,0,4,1.33,10.44,10.44,0,0,0,4.36-.3,11.21,11.21,0,0,0,4.24-2.17,11,11,0,0,0,2.72-3.37,10.34,10.34,0,0,0,1.1-4,9.77,9.77,0,0,0-.62-4.13,10.69,10.69,0,0,0-2.45-3.72,12.5,12.5,0,0,0-4.4-2.76A10.47,10.47,0,0,1,68,194.44a6.57,6.57,0,0,1-1.74-3.84l0-.22-.22,0a17.8,17.8,0,0,0-7.78,3,19,19,0,0,0-2.51,2.21,13.62,13.62,0,0,0-2.25,3.19,18.06,18.06,0,0,0-1.54,4.37,20.55,20.55,0,0,0-.36,5.69,2.46,2.46,0,0,1-.65,2,2.79,2.79,0,0,1-1.63.85,2.16,2.16,0,0,1-2.48-2.22,18.58,18.58,0,0,1,.52-5.63,21.19,21.19,0,0,1,2-5.13,24.11,24.11,0,0,1,3.17-4.42,23.4,23.4,0,0,1,3.93-3.51,21.07,21.07,0,0,1,4.5-2.39A22.91,22.91,0,0,1,66,187.17l.15,0,0-.15a7.31,7.31,0,0,1,1.49-3.11,9,9,0,0,1,2.64-2.24,9.69,9.69,0,0,1,10.86,1,5.83,5.83,0,0,1,1.88,3.13,5.55,5.55,0,0,1-.13,2.86A5.06,5.06,0,0,1,81.42,191,4.64,4.64,0,0,1,79,192.05a5.86,5.86,0,0,1-2.83-.46A18.61,18.61,0,0,0,69.82,190.19Zm0-3.19a21.68,21.68,0,0,1,3.89.51,22.67,22.67,0,0,1,3.7,1.17,7.87,7.87,0,0,0,.95.21l.21,0a1.41,1.41,0,0,0,.92-.37,2.55,2.55,0,0,0,.51-.9,2,2,0,0,0,0-1.17,3.33,3.33,0,0,0-1.1-1.65,5.13,5.13,0,0,0-2.2-1,6.71,6.71,0,0,0-4.25.22,5.18,5.18,0,0,0-2.82,2.7l-.13.29ZM119,173.58a2,2,0,0,0-2.51-1.41,2.05,2.05,0,0,0-.45,3.75,1.94,1.94,0,0,0,1.55.16,1.91,1.91,0,0,0,1.24-1A1.94,1.94,0,0,0,119,173.58Zm34.33,3a.54.54,0,0,0-.37-.33.9.9,0,0,0-.61.19,1.64,1.64,0,0,0-.6.82c-.37,1-.85,2.2-1.42,3.46a31.1,31.1,0,0,1-1.84,3.51,16.46,16.46,0,0,1-1.89,2.59c-.66.72-1.25.95-1.74.68a1.16,1.16,0,0,1-.46-1.08,8.36,8.36,0,0,1,.2-1.66c.13-.62.28-1.27.46-1.93s.35-1.25.5-1.75c.29-.95.55-1.93.8-2.91a16,16,0,0,0,.43-2.74,7.57,7.57,0,0,0-.14-2,4.86,4.86,0,0,0-.54-1.44,3.12,3.12,0,0,0-.82-.93,3.32,3.32,0,0,0-.93-.51,2.92,2.92,0,0,0-1.68-.07,4.69,4.69,0,0,0-1.73.89,8.83,8.83,0,0,0-1.62,1.74A13,13,0,0,0,138,175.5l-.4-.13c.21-1,.44-2,.66-3.13s.45-2.31.65-3.42.37-2.14.49-3a14.31,14.31,0,0,0,.17-1.93,1.34,1.34,0,0,0-.43-1.1,1.6,1.6,0,0,0-1.13-.42,1.33,1.33,0,0,0-1.11.45,1.61,1.61,0,0,0-.45,1.16,23.22,23.22,0,0,1-.35,3.06c-.21,1.36-.51,2.91-.87,4.62s-.76,3.49-1.24,5.51-.95,3.92-1.41,5.7q-.39,1.13-1.26,3.09a30.29,30.29,0,0,1-2.05,3.84,12.82,12.82,0,0,1-1.15,1.58,7.24,7.24,0,0,1-.89.92,2.12,2.12,0,0,1-.69.4,1,1,0,0,1-.45.06c-.16,0-.28-.18-.46-.58a5.36,5.36,0,0,1-.23-1.82,36.14,36.14,0,0,1,1.5-8.9l.69-2.67q.4-1.41.78-2.82c.24-.95.48-1.89.68-2.78l0-.13.11,0a11.7,11.7,0,0,0,2-.77,6,6,0,0,0,1.82-1.37,2,2,0,0,0,.72-1.39,1.37,1.37,0,0,0-.4-1.08,1.39,1.39,0,0,0-1.08-.37,2,2,0,0,0-1.31.81,6.86,6.86,0,0,1-.77.73l-.44.37.09-.56c.11-.61.18-1.14.22-1.59a9.8,9.8,0,0,0,.06-1.28,1.51,1.51,0,0,0-.48-1.11,1.59,1.59,0,0,0-1.14-.45,1.37,1.37,0,0,0-1.07.49,1.67,1.67,0,0,0-.43,1.16,17.84,17.84,0,0,1-.22,2.08c-.13.83-.33,1.77-.57,2.8l0,.1-.1.05c-.85.37-1.67.76-2.46,1.16a6.92,6.92,0,0,0-1.87,1.31,1.53,1.53,0,0,0-.42.82.71.71,0,0,0,.14.54.64.64,0,0,0,.5.18,1.42,1.42,0,0,0,.81-.33,7.22,7.22,0,0,1,1.2-.78,12.44,12.44,0,0,1,1.24-.52l.37-.13-1,4.07c-.13.47-.25.93-.36,1.37s-.23.87-.38,1.33c-.43,1.65-.79,3.2-1,4.6l0,.09c-.12.36-.28.78-.51,1.33s-.47,1.11-.76,1.78-.62,1.34-1,2.06a22.32,22.32,0,0,1-1.16,2.05,12.92,12.92,0,0,1-1.13,1.58,7.83,7.83,0,0,1-.88.91,1.88,1.88,0,0,1-.7.41.87.87,0,0,1-.45.05c-.53-.13-.84-.6-.93-1.38a9.77,9.77,0,0,1,.08-2.44,25.92,25.92,0,0,1,.58-2.83c.25-1,.47-1.84.65-2.58.4-1.55.7-2.83.89-3.81a5.41,5.41,0,0,0,0-2.38,1.64,1.64,0,0,0-.79-.94,1.47,1.47,0,0,0-1.2-.12,1.44,1.44,0,0,0-.91.73,1.52,1.52,0,0,0-.13,1.22,5.64,5.64,0,0,1-.24,1.91c-.22.89-.45,1.74-.68,2.54s-.49,1.93-.74,3a30.29,30.29,0,0,1-1.37,3.39,33.05,33.05,0,0,1-1.7,3.17,19.1,19.1,0,0,1-1.72,2.39,4.08,4.08,0,0,1-1.59,1.24c-.29.09-.5.06-.62-.07a.94.94,0,0,1-.38-.84,7.26,7.26,0,0,1,0-.94,18.9,18.9,0,0,1,.43-2.33c.21-.85.44-1.73.7-2.59s.5-1.92.75-2.88a13.38,13.38,0,0,0,.41-2.65,7,7,0,0,0-.15-2,4.49,4.49,0,0,0-.56-1.35,3.78,3.78,0,0,0-.82-.9,3,3,0,0,0-.9-.49,4,4,0,0,0-3.61.29,6.23,6.23,0,0,0-1.59,1.34,10.91,10.91,0,0,0-1.43,2l-.16.28-.19-.26a3.44,3.44,0,0,0-2-1.4,3,3,0,0,0-1.41.08,4.42,4.42,0,0,0-1.42.68,6.42,6.42,0,0,0-1.25,1.14,5.68,5.68,0,0,0-.88,1.37l-.29.62-.11-.67a3.71,3.71,0,0,0-.4-1.27,1.26,1.26,0,0,0-.83-.51,2,2,0,0,0-.41,0,1.38,1.38,0,0,0-.77.25,1.52,1.52,0,0,0-.66,1L84,205.38a1.34,1.34,0,0,0,.21,1.17,1.89,1.89,0,0,0,1.07.71,1.43,1.43,0,0,0,.68,0,1.61,1.61,0,0,0,.75-.46,1.54,1.54,0,0,0,.4-.78,102,102,0,0,1,2.21-10.11,35.83,35.83,0,0,1,2.21-6,8.28,8.28,0,0,1,2-2.87,2,2,0,0,1,1.78-.49c.59.18.9.85.92,2a15.69,15.69,0,0,1-.44,3.57c-.56,1.91-1,3.83-1.42,5.72s-.7,3.63-.93,5.18a1.42,1.42,0,0,0,.26,1.17,1.48,1.48,0,0,0,1,.62,1.46,1.46,0,0,0,1.18-.26,1.65,1.65,0,0,0,.65-1.05c.44-2.82.94-5.42,1.49-7.72a58.4,58.4,0,0,1,1.77-6,25.25,25.25,0,0,1,1.81-4,4.14,4.14,0,0,1,1.78-1.89.63.63,0,0,1,.65,0c.31.22.43.77.37,1.72a26.46,26.46,0,0,1-1.11,5.33c-.26.92-.51,1.86-.75,2.81a16.68,16.68,0,0,0-.42,2.68c-.2,2.41.46,4,2,4.87a3.67,3.67,0,0,0,2.87.33.71.71,0,0,0,.16-.07l.24-.1a4.83,4.83,0,0,0,2-1.42,13.94,13.94,0,0,0,1.66-2.42,18.77,18.77,0,0,0,.89-1.88l.22-.52.18.53A4.62,4.62,0,0,0,113,197a3.63,3.63,0,0,0,1.07,1,4.9,4.9,0,0,0,1.17.55,3.1,3.1,0,0,0,2.54-.24,6.86,6.86,0,0,0,2.15-2,16.73,16.73,0,0,0,1.7-3c.1-.24.2-.47.29-.71l.36-.86.14.64.1.37a6,6,0,0,0,.71,1.59,3,3,0,0,0,.91,1,3.72,3.72,0,0,0,1,.46,2.87,2.87,0,0,0,2.38-.34,7.63,7.63,0,0,0,2.11-2l.22-.3.14.35a2.16,2.16,0,0,0,.44.67,1.39,1.39,0,0,0,.69.39,1.6,1.6,0,0,0,1.22-.15,1.41,1.41,0,0,0,.7-1l.58-2c.62-2.24,1.32-4.41,2.08-6.45s1.52-3.85,2.28-5.43a27.93,27.93,0,0,1,2.29-4,6.34,6.34,0,0,1,2.11-2.1.74.74,0,0,1,.46-.11.63.63,0,0,1,.22.08,1.57,1.57,0,0,1,.4.37c.2.23.25.67.16,1.45a12.2,12.2,0,0,1-.4,2.34c-.22.89-.46,1.77-.71,2.61s-.52,1.85-.76,2.76a15.1,15.1,0,0,0-.45,2.6c-.19,2.3.47,3.84,2,4.71a4.06,4.06,0,0,0,1.6.47,2.75,2.75,0,0,0,1.62-.29,6.25,6.25,0,0,0,1.94-1.6,14.85,14.85,0,0,0,1.61-2.43,23.87,23.87,0,0,0,1.28-2.82c.36-.95.68-1.86.95-2.71s.47-1.56.62-2.16a11,11,0,0,1,.36-1.25A1.23,1.23,0,0,0,153.31,176.56Z"/>
  </g>
</svg>
